<?xml version="1.0" encoding="iso-8859-1"?>
<!-- Generator: Adobe Illustrator 19.0.0, SVG Export Plug-In . SVG Version: 6.00 Build 0)  -->
<svg version="1.1" id="Layer_1" xmlns="http://www.w3.org/2000/svg" xmlns:xlink="http://www.w3.org/1999/xlink" x="0px" y="0px"
	 viewBox="0 0 512.001 512.001" style="enable-background:new 0 0 512.001 512.001;" xml:space="preserve">
<g>
	<g>
		<path d="M191.676,372.069l-67.978-67.98c-4.347-4.345-11.393-4.345-15.741,0l-36.335,36.336c-3.419,3.42-4.241,8.657-2.028,12.959
			l46.159,89.8c1.625,3.163,4.664,5.358,8.177,5.909c0.575,0.089,1.15,0.134,1.723,0.134c2.927,0,5.766-1.156,7.869-3.26
			l58.155-58.156C196.022,383.464,196.022,376.416,191.676,372.069z M128.572,419.432l-35.471-69.007l22.726-22.724l52.239,52.238
			L128.572,419.432z"/>
	</g>
</g>
<g>
	<g>
		<path d="M223.569,340.173l-67.977-67.978c-4.347-4.345-11.393-4.345-15.741,0c-4.346,4.346-4.346,11.394,0,15.741l67.979,67.978
			c2.174,2.173,5.022,3.26,7.87,3.26s5.696-1.087,7.87-3.26C227.916,351.568,227.916,344.52,223.569,340.173z"/>
	</g>
</g>
<g>
	<g>
		<path d="M487.535,102.021l-13.305-3.566c0.085-1.439,0.14-2.884,0.14-4.337c0-6.473-0.858-12.811-2.486-18.901l11.106-2.975
			c5.938-1.592,9.462-7.693,7.87-13.631c-1.592-5.937-7.694-9.462-13.631-7.87l-14.506,3.887c-2.764-4.255-5.979-8.26-9.652-11.933
			c-3.69-3.69-7.714-6.917-11.992-9.69l3.87-14.445c1.592-5.937-1.932-12.039-7.87-13.631c-5.94-1.593-12.039,1.933-13.631,7.87
			l-2.964,11.063c-6.07-1.617-12.387-2.469-18.837-2.469c-1.481,0-2.952,0.059-4.419,0.146l-3.559-13.286
			c-1.592-5.937-7.695-9.464-13.631-7.87c-5.938,1.592-9.462,7.693-7.87,13.631l3.281,12.243c-9.336,3.601-17.908,9.128-25.2,16.411
			l-8.754-8.754c-4.347-4.345-11.395-4.345-15.741,0c-4.346,4.347-4.346,11.394,0,15.741l8.754,8.754l-21.426,21.426l-8.754-8.754
			c-4.345-4.343-11.391-4.345-15.741,0c-4.346,4.346-4.346,11.393,0,15.741l8.754,8.754l-21.427,21.427l-8.754-8.754
			c-4.346-4.344-11.392-4.345-15.741,0c-4.346,4.346-4.346,11.393,0,15.741l8.754,8.754l-21.427,21.427l-8.754-8.754
			c-4.345-4.343-11.391-4.345-15.741,0c-4.346,4.346-4.346,11.393,0,15.741l8.754,8.754l-21.427,21.427l-8.754-8.754
			c-4.346-4.344-11.392-4.345-15.741,0c-4.346,4.346-4.346,11.393,0,15.741l8.754,8.754l-15.806,15.806
			c-6.422-5.998-14.743-9.296-23.576-9.296c-9.237,0-17.921,3.597-24.451,10.128l-7.837,7.837l-8.838-8.838
			c-12.612-12.609-33.132-12.609-45.744,0l-33.002,33.003c-12.61,12.612-12.61,33.132,0,45.743l8.838,8.838l-9.053,9.053
			c-10.666,10.664-13.199,26.843-6.304,40.258L88.74,493.217c5.107,9.937,14.366,16.626,25.403,18.355
			c1.838,0.287,3.67,0.43,5.484,0.43c9.088,0,17.731-3.556,24.317-10.141l128.101-128.1c13.196-13.196,13.467-34.486,0.833-48.025
			l15.806-15.806l8.753,8.754c2.174,2.173,5.022,3.26,7.87,3.26s5.696-1.087,7.87-3.26c4.346-4.346,4.346-11.393,0-15.741
			l-8.753-8.754l21.427-21.427l8.753,8.753c2.174,2.173,5.022,3.26,7.87,3.26c2.848,0,5.696-1.087,7.87-3.26
			c4.346-4.346,4.346-11.394,0-15.741l-8.753-8.753l21.427-21.427l8.753,8.753c2.174,2.173,5.022,3.26,7.87,3.26
			c2.848,0,5.696-1.087,7.87-3.26c4.346-4.346,4.346-11.394,0-15.741l-8.753-8.753l21.427-21.427l8.753,8.753
			c2.174,2.173,5.022,3.26,7.87,3.26c2.848,0,5.696-1.087,7.87-3.26c4.346-4.346,4.346-11.394,0-15.741l-8.753-8.753l21.427-21.427
			l8.753,8.753c2.174,2.173,5.022,3.26,7.87,3.26c2.848,0,5.696-1.087,7.87-3.26c4.346-4.346,4.346-11.394,0-15.741l-8.754-8.754
			c7.304-7.31,12.84-15.908,16.44-25.273l12.238,3.28c0.965,0.258,1.934,0.383,2.888,0.383c4.914,0,9.412-3.28,10.744-8.252
			C496.996,109.715,493.472,103.613,487.535,102.021z M42.325,271.461l33.001-33.002c3.935-3.932,10.332-3.932,14.262,0l8.838,8.838
			L51.164,294.56l-8.84-8.838C38.393,281.791,38.394,275.392,42.325,271.461z M256.304,358.019l-128.1,128.1
			c-2.813,2.814-6.683,4.079-10.616,3.459c-3.931-0.615-7.23-2.998-9.05-6.538L39.863,349.437
			c-2.455-4.779-1.554-10.542,2.247-14.341l95.636-95.637c2.326-2.326,5.419-3.607,8.709-3.607c3.29,0,6.383,1.281,8.709,3.608
			l101.14,101.139C261.108,345.402,261.108,353.216,256.304,358.019z M437.329,129.801L280.825,286.305
			c-0.003,0.003-0.008,0.007-0.011,0.01c-0.003,0.003-0.007,0.008-0.01,0.011l-23.645,23.645l-71.367-71.364L365.964,58.436
			c19.675-19.676,51.69-19.676,71.365,0C457.005,78.111,457.005,110.125,437.329,129.801z"/>
	</g>
</g>
<g>
	<g>
		<path d="M372.443,103.911c-4.347-4.345-11.393-4.345-15.741,0L227.555,233.059c-4.346,4.346-4.346,11.394,0,15.741
			c2.174,2.173,5.022,3.26,7.87,3.26s5.696-1.087,7.87-3.26l129.148-129.148C376.789,115.306,376.789,108.259,372.443,103.911z"/>
	</g>
</g>
<g>
	<g>
		<path d="M403.927,72.429c-4.344-4.346-11.393-4.346-15.74-0.001l-6.96,6.959c-4.346,4.345-4.347,11.393-0.001,15.74
			c2.174,2.174,5.022,3.261,7.871,3.261c2.848,0,5.696-1.087,7.869-3.26l6.96-6.959C408.272,83.825,408.273,76.777,403.927,72.429z"
			/>
	</g>
</g>
<g>
</g>
<g>
</g>
<g>
</g>
<g>
</g>
<g>
</g>
<g>
</g>
<g>
</g>
<g>
</g>
<g>
</g>
<g>
</g>
<g>
</g>
<g>
</g>
<g>
</g>
<g>
</g>
<g>
</g>
</svg>
