<?xml version="1.0" encoding="utf-8"?>
<!-- Generator: Adobe Illustrator 16.0.4, SVG Export Plug-In . SVG Version: 6.00 Build 0)  -->
<!DOCTYPE svg PUBLIC "-//W3C//DTD SVG 1.1//EN" "http://www.w3.org/Graphics/SVG/1.1/DTD/svg11.dtd">
<svg version="1.1" id="Capa_1" xmlns="http://www.w3.org/2000/svg" xmlns:xlink="http://www.w3.org/1999/xlink" x="0px" y="0px"
	 width="100px" height="100px" viewBox="0 0 100 100" enable-background="new 0 0 100 100" xml:space="preserve">
<g>
	<g>
		<path fill="#AEAEAE" d="M50,0c-27.614,0-50,22.386-50,50c0,27.613,22.385,50,50,50c27.614,0,50-22.387,50-50
			C100,22.386,77.614,0,50,0z M74.662,42.119c0.023,0.512,0.035,1.028,0.035,1.545c0,15.794-12.021,34.005-34.004,34.005
			c-6.749,0-13.033-1.979-18.319-5.369c0.933,0.111,1.887,0.166,2.85,0.166c5.601,0,10.753-1.91,14.844-5.115
			c-5.231-0.098-9.644-3.553-11.164-8.301c0.729,0.141,1.477,0.215,2.249,0.215c1.088,0,2.146-0.146,3.148-0.42
			c-5.466-1.098-9.587-5.928-9.587-11.718c0-0.05,0-0.101,0.001-0.151c1.61,0.897,3.455,1.435,5.413,1.496
			c-3.205-2.143-5.316-5.802-5.316-9.947c0-2.19,0.59-4.245,1.619-6.009c5.895,7.233,14.702,11.991,24.634,12.489
			c-0.205-0.875-0.311-1.787-0.311-2.724c0-6.599,5.352-11.952,11.951-11.952c3.439,0,6.545,1.451,8.726,3.773
			c2.722-0.536,5.28-1.529,7.589-2.899c-0.894,2.792-2.787,5.132-5.256,6.611c2.418-0.287,4.723-0.93,6.865-1.88
			C79.025,38.331,77,40.435,74.662,42.119z"/>
	</g>
</g>
</svg>
